<svg id="Layer_1" enable-background="new 0 0 510 510" height="512" viewBox="0 0 510 510" width="512" xmlns="http://www.w3.org/2000/svg"><g><path fill="#fff" d="m255.102 135c-27.907 0-51.424 19.15-58.102 45h116.203c-6.676-25.85-30.195-45-58.101-45z"/><path fill="#fff" d="m60 0v510h390v-510zm180 435h-120v-30h120zm0-75h-120v-30h120zm150 75h-90v-30h90zm0-75h-90v-30h90zm0-75h-270v-30h270zm-15-75h-30-180-30v-30h31.257c6.34-37.631 36.112-67.402 73.743-73.743v-31.257h30v31.257c37.631 6.341 67.402 36.112 73.743 73.743h31.257z"/></g></svg>