<svg id="Capa_1" enable-background="new 0 0 512 512" height="512" viewBox="0 0 512 512" width="512" xmlns="http://www.w3.org/2000/svg"><g><path fill="#fff" d="m126.254 200.289c-27.06 0-49.139 28.747-49.84 64.43h99.679c-.7-35.683-22.779-64.43-49.839-64.43z"/><path fill="#fff" d="m191.125 119.116c-24.119 0-44.29 22.835-48.887 53.066 20.92 5.035 38.015 19.863 48.888 38.03 10.873-18.166 27.967-32.994 48.885-38.03-4.596-30.23-24.767-53.066-48.886-53.066z"/><path fill="#fff" d="m1.657 361.375c7.892 42.046 43.191 74.426 86.642 77.875h335.402c43.451-3.449 78.75-35.829 86.642-77.875z"/><path fill="#fff" d="m0 294.719h512v36.656h-512z"/><path fill="#fff" d="m320.868 119.116c-24.119 0-44.29 22.835-48.887 53.066 20.92 5.035 38.015 19.863 48.888 38.03 10.873-18.166 27.966-32.994 48.885-38.03-4.596-30.23-24.767-53.066-48.886-53.066z"/><path fill="#fff" d="m46.125 264.719v-24.844c0-115.726 94.149-209.875 209.875-209.875s209.875 94.149 209.875 209.875v24.844h30v-24.844c0-64.073-24.951-124.311-70.258-169.617-45.306-45.307-105.544-70.258-169.617-70.258s-124.311 24.951-169.617 70.258c-45.307 45.306-70.258 105.544-70.258 169.617v24.844z"/><path fill="#fff" d="m255.998 200.289c-27.06 0-49.138 28.747-49.839 64.43h99.679c-.701-35.683-22.78-64.43-49.84-64.43z"/><path fill="#fff" d="m96 469.25h320v42.75h-320z"/><path fill="#fff" d="m385.741 200.289c-27.06 0-49.139 28.747-49.84 64.43h99.679c-.7-35.683-22.779-64.43-49.839-64.43z"/></g></svg>