<svg id="Layer_1" enable-background="new 0 0 510 510" height="512" viewBox="0 0 510 510" width="512" xmlns="http://www.w3.org/2000/svg"><g><path fill="#fff" d="m60 0v510h390v-510zm360 480h-330v-450h330z"/><path fill="#fff" d="m120 330h120v30h-120z"/><path fill="#fff" d="m120 405h120v30h-120z"/><path fill="#fff" d="m120 255h270v30h-270z"/><path fill="#fff" d="m300 330h90v30h-90z"/><path fill="#fff" d="m300 405h90v30h-90z"/><path fill="#fff" d="m375 210v-30h-31.257c-6.341-37.631-36.112-67.402-73.743-73.743v-31.257h-30v31.257c-37.631 6.341-67.403 36.112-73.743 73.743h-31.257v30zm-120-75c27.906 0 51.425 19.15 58.102 45h-116.204c6.678-25.85 30.195-45 58.102-45z"/></g></svg>